<svg xmlns="http://www.w3.org/2000/svg" viewBox="0 0 191.05 183.25"><defs><style>.cls-1{fill:#fff;}.cls-2,.cls-3{fill:#545454;}.cls-3{font-size:50.26px;font-family:Arial-BoldMT, Arial;font-weight:700;}.cls-4{letter-spacing:-0.06em;}.cls-5{letter-spacing:0em;}</style></defs><g id="Layer_2" data-name="Layer 2"><g id="Layer_1-2" data-name="Layer 1"><path class="cls-1" d="M144.22,0a46.83,46.83,0,1,0,46.83,46.83A46.89,46.89,0,0,0,144.22,0Zm0,81.66a34.83,34.83,0,1,1,34.83-34.83A34.87,34.87,0,0,1,144.22,81.66Z"/><polygon class="cls-2" points="93.66 9.73 83.92 0 46.83 37.1 9.73 0 0 9.73 37.1 46.83 0 83.92 9.73 93.66 46.83 56.56 83.92 93.66 93.66 83.92 56.56 46.83 93.66 9.73"/><text class="cls-3" transform="translate(10.37 164.33)">DR<tspan class="cls-4" x="72.6" y="0">A</tspan><tspan class="cls-5" x="106.12" y="0">W!</tspan></text></g></g></svg>